<svg width="56" height="56" viewBox="0 0 24 24" fill="none" xmlns="http://www.w3.org/2000/svg">
    <rect width="56" height="56" rx="3" fill="white"/>
    <path fill-rule="evenodd" clip-rule="evenodd"
          d="M5.66652 16.6904C5.25295 16.462 5 16.0551 5 15.6182V13.1785C5 13.0851 5.02769 12.9951 5.07939 12.915C5.24002 12.6649 5.59636 12.5799 5.87331 12.7266L11.9699 15.9367C12.3262 16.1251 12.5459 16.4686 12.5459 16.8422V19.3702C12.5459 19.4853 12.5109 19.6003 12.4444 19.6987C12.2431 19.9956 11.8148 20.0889 11.4862 19.9072L5.66652 16.6904ZM14.7542 12.0579C15.1105 12.2463 15.3302 12.5899 15.3302 12.9634V18.0929C15.3302 18.2446 15.2397 18.3847 15.0939 18.4581L13.759 19.1368C13.7424 19.1451 13.7239 19.1518 13.7054 19.1568V16.3086C13.7054 15.94 13.4913 15.5982 13.1405 15.4081L7.78611 12.5148V9.29975C7.78611 9.20636 7.8138 9.11631 7.8655 9.03627C8.02613 8.78614 8.38247 8.70109 8.65942 8.84784L14.7542 12.0579ZM17.4221 8.26919C17.7803 8.45596 18 8.80281 18 9.17635V16.6688C18 16.8222 17.9058 16.9639 17.7563 17.0373L16.4915 17.6543V12.4381C16.4915 12.0696 16.2774 11.7294 15.9284 11.5393L10.4559 8.57435V5.52436C10.4559 5.43098 10.4836 5.34093 10.5334 5.26089C10.6941 5.01075 11.0504 4.9257 11.3274 5.07078L17.4221 8.26919Z"
          fill="#00D395"/>
</svg>
